<svg xmlns="http://www.w3.org/2000/svg" width="642" height="611" viewBox="0 0 642 611">
<g>
<path d="M 403.18 421.78 C402.82,424.29 400.24,424.78 399.36,422.50 C398.82,421.08 399.29,418.02 400.55,414.72 C400.90,413.81 400.35,413.06 399.06,412.73 C396.64,412.09 396.40,409.37 398.35,404.70 C399.09,402.93 399.62,400.44 399.53,399.17 C399.42,397.69 400.73,395.51 403.19,393.04 C405.76,390.47 406.81,388.67 406.39,387.56 C405.81,386.05 405.58,386.06 403.63,387.71 L 401.50 389.50 L 403.41 387.24 C404.46,386.00 405.54,385.21 405.82,385.49 C406.49,386.16 409.00,384.01 409.00,382.76 C409.00,382.21 408.21,382.37 407.25,383.13 C405.66,384.38 405.63,384.34 406.89,382.73 C407.66,381.75 408.52,381.19 408.81,381.48 C409.47,382.13 413.00,379.02 413.00,377.79 C413.00,377.29 412.44,377.23 411.75,377.65 C411.06,378.08 412.02,376.51 413.87,374.17 C415.72,371.82 417.48,370.15 417.78,370.45 C418.46,371.13 421.00,369.06 421.00,367.82 C421.00,367.30 420.55,367.16 420.00,367.50 C418.37,368.51 418.86,367.36 420.69,365.87 C422.15,364.69 422.27,364.71 421.55,366.00 C420.60,367.69 421.28,367.01 425.01,362.51 C427.02,360.09 427.10,359.80 425.45,361.01 C424.31,361.83 424.75,361.26 426.41,359.75 C428.07,358.24 429.04,357.00 428.56,357.00 C428.08,357.00 428.65,356.17 429.83,355.15 C431.00,354.13 431.72,353.06 431.43,352.76 C431.14,352.47 432.07,351.31 433.50,350.18 C434.93,349.05 436.14,347.76 436.19,347.32 C436.23,346.87 437.12,345.91 438.15,345.18 C439.19,344.46 439.83,343.53 439.57,343.12 C439.32,342.71 440.84,340.49 442.94,338.19 C445.05,335.88 446.58,334.00 446.35,334.00 C445.58,334.00 456.18,321.55 458.87,319.29 C460.32,318.07 461.11,317.06 460.63,317.04 C459.89,317.01 463.89,311.53 468.68,306.00 C469.40,305.17 472.63,301.12 475.88,297.00 C479.12,292.88 485.89,284.39 490.94,278.16 C522.83,238.68 529.06,230.67 528.32,230.06 C527.52,229.40 516.87,222.64 506.25,216.05 C503.36,214.26 501.00,212.24 501.00,211.57 C501.00,210.90 505.39,208.93 510.75,207.19 C539.67,197.82 583.18,184.12 586.03,183.49 C588.96,182.85 589.22,182.97 588.53,184.64 C588.10,185.66 582.55,204.73 576.19,227.00 C569.83,249.27 564.45,267.73 564.23,268.00 C564.01,268.27 562.93,267.38 561.84,266.00 C556.11,258.79 546.37,248.13 545.50,248.12 C544.39,248.11 538.68,254.95 528.49,268.50 C524.77,273.45 519.87,279.71 517.61,282.42 C515.35,285.12 512.60,288.56 511.50,290.06 C506.58,296.76 486.88,322.46 479.36,332.00 C474.81,337.77 465.43,349.92 458.52,359.00 C451.61,368.08 442.70,379.76 438.73,384.96 C434.75,390.16 428.46,397.48 424.75,401.22 C421.04,404.96 418.00,408.52 418.00,409.13 C418.00,409.86 418.61,409.78 419.75,408.89 C421.17,407.79 421.15,407.95 419.60,409.77 C417.64,412.05 416.39,412.79 417.50,411.00 C418.26,409.76 417.79,409.75 414.71,410.92 C413.15,411.51 412.07,412.91 411.69,414.81 C411.20,417.25 410.41,417.94 407.30,418.67 C404.48,419.34 403.42,420.14 403.18,421.78 ZM 344.50 589.99 C335.47,593.47 322.58,593.79 313.88,590.75 C303.09,586.98 295.42,579.72 290.53,568.67 C288.23,563.46 287.76,563.00 284.76,562.98 C275.47,562.91 237.25,553.39 234.26,550.40 C233.40,549.55 231.87,549.06 230.85,549.33 C229.83,549.60 229.21,549.46 229.48,549.03 C229.74,548.60 227.23,547.26 223.90,546.04 C220.57,544.83 216.93,542.78 215.81,541.50 C214.05,539.47 210.65,537.85 207.58,537.58 C205.48,537.39 206.03,534.94 208.42,533.85 C211.28,532.55 211.80,530.52 209.50,529.64 C208.68,529.32 208.00,528.15 208.00,527.03 C208.00,525.89 208.66,525.00 209.50,525.00 C211.29,525.00 211.35,524.52 209.91,521.84 C208.30,518.83 212.08,515.10 216.50,515.33 C218.31,515.42 219.61,515.81 219.38,516.18 C218.77,517.19 222.80,518.24 224.15,517.41 C224.92,516.93 225.04,517.13 224.49,518.02 C223.89,518.99 224.13,519.16 225.39,518.68 C226.33,518.32 226.85,518.43 226.54,518.94 C225.80,520.13 229.63,521.35 231.15,520.41 C231.83,519.99 232.04,520.12 231.66,520.74 C230.86,522.04 233.47,523.14 235.50,522.36 C236.33,522.04 237.00,522.33 237.00,523.00 C237.00,523.67 237.67,523.96 238.50,523.64 C239.32,523.32 240.00,523.53 240.00,524.09 C240.00,524.66 240.42,524.86 240.93,524.54 C241.44,524.23 242.15,524.43 242.50,525.00 C242.85,525.57 243.61,525.74 244.18,525.39 C244.75,525.03 245.53,525.24 245.91,525.85 C246.28,526.45 247.57,527.10 248.77,527.28 C249.97,527.47 251.23,527.90 251.57,528.24 C251.91,528.58 252.78,528.64 253.50,528.36 C254.21,528.09 255.10,528.35 255.47,528.95 C255.84,529.54 256.53,529.79 257.00,529.50 C257.47,529.21 258.13,529.41 258.46,529.94 C258.79,530.47 259.72,530.66 260.53,530.35 C261.34,530.04 262.00,530.33 262.00,531.00 C262.00,531.67 262.66,531.96 263.47,531.65 C264.28,531.34 265.22,531.55 265.57,532.11 C265.92,532.68 266.83,532.89 267.60,532.60 C268.37,532.30 269.00,532.55 269.00,533.15 C269.00,533.77 270.08,534.03 271.50,533.76 C272.88,533.49 274.00,533.70 274.00,534.21 C274.00,534.72 274.90,534.85 276.00,534.50 C277.10,534.15 278.00,534.32 278.00,534.87 C278.00,535.86 278.79,536.02 284.25,536.15 C285.76,536.18 287.00,536.55 287.00,536.95 C287.00,537.36 288.33,537.73 289.96,537.78 C292.38,537.85 293.53,537.00 296.38,533.03 C301.57,525.81 314.59,517.86 318.67,519.43 C319.37,519.69 320.18,519.52 320.47,519.05 C320.76,518.58 325.02,518.33 329.94,518.49 C340.20,518.84 346.53,521.20 354.00,527.47 C366.17,537.69 370.53,554.48 364.91,569.53 C361.84,577.75 352.83,586.78 344.50,589.99 ZM 445.20 322.63 C441.46,326.95 437.75,330.57 436.95,330.66 C435.14,330.88 430.09,327.66 424.53,322.75 C422.19,320.69 419.79,319.00 419.19,319.00 C418.59,319.00 417.74,318.41 417.30,317.69 C416.86,316.97 415.07,315.81 413.32,315.10 C411.57,314.39 409.37,312.96 408.42,311.91 C406.58,309.87 404.00,309.34 404.00,311.00 C404.00,311.55 403.55,312.00 403.00,312.00 C402.37,312.00 402.00,304.83 402.00,292.50 L 402.00 273.00 L 452.00 273.00 L 452.00 314.76 ZM 414.86 374.25 C413.24,376.56 413.09,377.09 414.34,376.08 C416.13,374.65 418.47,371.00 417.60,371.00 C417.35,371.00 416.11,372.46 414.86,374.25 ZM 426.13 401.25 C424.82,402.92 424.00,403.45 424.00,402.62 C424.00,402.41 424.79,401.63 425.75,400.87 C427.34,399.63 427.37,399.66 426.13,401.25 Z" fill="rgb(10,169,200)"/>
<path d="M 224.42 517.25 C224.34,517.29 224.25,517.35 224.15,517.41 C222.80,518.24 218.77,517.19 219.38,516.18 C219.61,515.81 218.31,515.42 216.50,515.33 C212.08,515.10 208.30,518.83 209.91,521.84 C211.35,524.52 211.29,525.00 209.50,525.00 C208.66,525.00 208.00,525.89 208.00,527.03 C208.00,528.15 208.68,529.32 209.50,529.64 C211.80,530.52 211.28,532.55 208.42,533.85 C206.03,534.94 205.48,537.39 207.58,537.58 C210.65,537.85 214.05,539.47 215.81,541.50 C216.93,542.78 220.57,544.83 223.90,546.04 C227.23,547.26 229.74,548.60 229.48,549.03 C229.21,549.46 229.83,549.60 230.85,549.33 C231.87,549.06 233.40,549.55 234.26,550.40 C235.98,552.12 249.35,556.00 262.17,559.00 C257.78,558.01 253.41,556.95 249.67,555.92 C217.60,547.12 182.72,530.05 158.00,511.08 C136.06,494.24 118.64,476.82 103.76,456.84 C84.73,431.28 68.21,394.40 62.86,365.52 C61.74,359.46 60.48,353.83 60.06,353.01 C59.64,352.19 57.09,350.24 54.40,348.67 C47.22,344.50 43.28,340.30 39.69,333.02 C36.69,326.92 36.50,325.89 36.50,315.52 C36.50,305.53 36.76,303.98 39.25,298.91 C43.44,290.38 52.36,282.20 59.43,280.43 C60.98,280.04 62.19,278.92 62.44,277.64 C68.64,246.30 78.23,220.56 92.59,196.77 C109.79,168.25 126.88,148.39 152.18,127.49 C164.08,117.67 180.00,106.14 180.00,107.36 C180.00,107.61 175.39,111.11 169.75,115.14 C164.11,119.17 159.01,122.92 158.42,123.48 C157.82,124.04 154.46,126.97 150.94,130.00 C147.42,133.02 142.96,137.24 141.02,139.37 C139.08,141.50 135.93,144.78 134.00,146.66 C125.34,155.14 124.12,156.46 124.55,156.88 C124.80,157.13 124.27,158.15 123.38,159.14 C122.44,160.17 121.98,161.82 122.30,163.02 C122.71,164.59 122.23,165.34 120.36,166.05 C119.00,166.57 118.17,167.47 118.53,168.04 C118.88,168.62 118.36,170.31 117.37,171.79 C115.38,174.78 115.45,176.87 117.59,178.46 C119.05,179.53 119.74,190.66 118.69,196.25 C117.99,199.98 119.98,199.74 122.50,195.78 C123.60,194.05 125.13,192.44 125.89,192.19 C126.81,191.89 127.01,192.17 126.48,193.02 C125.99,193.83 126.09,194.06 126.75,193.65 C127.33,193.29 127.60,192.18 127.34,191.18 C127.07,190.18 127.57,188.77 128.43,188.06 C129.29,187.34 130.00,187.09 130.00,187.50 C130.00,187.91 130.68,187.68 131.50,187.00 C132.32,186.32 133.00,184.98 133.00,184.03 C133.00,182.22 135.82,179.14 137.48,179.15 C138.01,179.15 138.63,178.60 138.85,177.94 C139.11,177.17 138.79,177.01 137.98,177.52 C137.13,178.04 136.94,177.91 137.41,177.14 C137.81,176.49 138.53,176.21 139.01,176.50 C139.49,176.80 140.34,176.25 140.91,175.27 C141.59,174.10 141.95,173.96 141.97,174.86 C141.99,175.61 140.85,177.64 139.45,179.36 C134.69,185.23 128.50,193.49 127.38,195.50 C126.77,196.60 123.66,201.77 120.47,207.00 C107.70,227.95 98.83,250.53 92.71,277.71 C92.29,279.54 93.10,280.43 97.38,282.85 C107.40,288.50 113.80,298.23 116.03,311.17 C117.45,319.43 116.12,326.99 111.83,335.12 C108.25,341.89 104.22,345.96 97.39,349.70 L 92.28 352.50 L 94.19 362.00 C98.14,381.62 108.17,407.14 118.67,424.27 C144.08,465.72 180.96,498.12 224.42,517.25 ZM 350.50 487.06 C344.18,488.36 312.41,487.95 302.66,486.43 C242.08,477.01 194.04,437.41 176.00,382.03 C169.79,362.98 168.58,354.50 168.64,330.50 C168.68,311.64 168.95,308.30 171.30,297.77 C175.25,280.00 179.19,269.58 187.58,254.77 C204.28,225.27 230.85,200.35 262.03,184.94 C272.19,179.91 295.24,171.58 297.18,172.23 C297.80,172.43 294.75,173.63 290.40,174.89 C280.08,177.88 262.01,185.61 260.49,187.68 C259.74,188.71 258.79,189.01 257.90,188.49 C257.13,188.05 256.83,188.05 257.24,188.50 C258.25,189.61 256.13,192.00 254.13,192.01 C253.23,192.01 251.44,193.36 250.14,195.00 C248.81,196.68 247.29,197.69 246.64,197.30 C245.95,196.89 246.01,197.24 246.77,198.19 C247.84,199.50 247.72,199.84 246.02,200.28 C244.80,200.60 244.00,201.65 244.00,202.91 C244.00,204.06 243.66,205.06 243.25,205.13 C241.26,205.47 237.37,206.06 236.28,206.19 C235.59,206.27 236.12,207.40 237.53,208.80 C240.34,211.61 240.59,213.64 238.47,216.44 C236.20,219.43 236.60,221.14 239.39,220.44 C242.46,219.67 243.34,221.15 241.82,224.50 C240.87,226.59 240.88,227.57 241.87,229.16 C242.60,230.34 242.86,232.37 242.48,234.08 C241.94,236.54 242.15,237.00 243.81,237.00 C247.59,237.00 247.59,241.08 243.81,243.81 C242.82,244.53 242.00,245.84 242.00,246.73 C242.00,247.62 241.26,249.16 240.36,250.15 C237.48,253.33 237.54,264.45 240.43,262.06 C241.12,261.49 241.98,261.31 242.34,261.68 C242.70,262.04 243.00,261.30 243.00,260.03 C243.00,258.77 244.01,256.83 245.25,255.73 C246.78,254.37 247.10,253.59 246.25,253.28 C245.56,253.04 245.00,252.20 245.00,251.42 C245.00,249.94 245.09,249.89 248.79,249.51 C250.81,249.30 252.11,248.39 257.66,243.37 C258.34,242.75 258.59,241.89 258.20,241.46 C257.82,241.03 258.01,240.97 258.64,241.33 C259.27,241.69 262.20,239.72 265.14,236.95 C268.09,234.18 271.53,231.24 272.78,230.41 C274.04,229.59 274.76,228.42 274.39,227.83 C274.00,227.19 274.29,226.93 275.10,227.20 C275.86,227.45 278.62,226.41 281.22,224.87 C286.73,221.62 300.61,214.97 306.77,212.62 C314.61,209.64 313.61,210.99 305.50,214.34 C287.61,221.73 272.53,231.51 260.52,243.51 C245.03,258.97 233.21,280.73 228.41,302.61 C227.24,307.93 226.48,317.35 226.07,331.50 C225.58,348.76 225.34,351.25 224.72,345.50 C224.30,341.65 223.52,336.33 222.98,333.67 C222.44,331.02 221.99,327.19 221.99,325.17 C221.96,319.33 221.02,316.74 219.39,318.09 C218.64,318.72 218.29,319.65 218.61,320.18 C219.79,322.09 217.95,327.88 215.97,328.51 C214.76,328.89 214.00,330.03 214.00,331.43 C214.00,332.70 213.10,334.87 212.00,336.27 C210.70,337.92 210.00,340.34 209.99,343.16 C209.97,351.33 208.79,358.00 207.36,358.00 C206.38,358.00 206.00,359.54 206.00,363.60 C206.00,368.17 206.67,370.42 209.67,375.85 C211.69,379.51 214.27,384.23 215.41,386.35 C216.54,388.46 218.84,391.84 220.51,393.85 C222.18,395.86 224.72,399.30 226.14,401.50 C233.19,412.39 257.73,434.26 275.49,445.47 C278.62,447.45 288.88,452.95 289.27,452.87 C289.70,452.77 295.49,455.27 300.34,457.63 C305.97,460.38 309.00,460.66 309.00,458.43 C309.00,457.46 309.68,456.99 310.75,457.20 C311.89,457.43 312.40,458.30 312.20,459.69 C311.80,462.56 313.97,463.76 315.59,461.55 C316.81,459.88 317.18,459.89 323.19,461.79 C326.66,462.88 331.00,464.17 332.83,464.64 C336.77,465.66 337.12,467.37 333.46,467.82 C331.78,468.03 330.23,467.41 329.06,466.07 C327.02,463.71 324.00,463.31 324.00,465.39 C324.00,466.16 325.37,468.25 327.04,470.04 C331.54,474.86 330.24,476.33 323.00,474.57 C321.58,474.22 321.15,474.29 322.00,474.73 C322.83,475.15 323.66,476.62 323.85,478.00 C324.04,479.38 324.34,480.65 324.51,480.83 C325.23,481.58 338.08,484.20 345.00,484.99 C351.03,485.69 353.44,485.96 353.44,486.25 C353.44,486.45 352.44,486.66 350.75,487.00 ZM 320.00 410.00 C320.00,433.65 319.66,452.96 319.25,452.92 C316.25,452.61 300.58,444.50 291.45,438.55 C286.95,435.62 280.06,430.19 276.14,426.49 L 269.00 419.76 L 269.00 367.00 L 320.00 367.00 ZM 403.18 421.78 C403.42,420.14 404.48,419.34 407.30,418.67 C410.41,417.94 411.20,417.25 411.69,414.81 C412.07,412.91 413.15,411.51 414.71,410.92 C417.79,409.75 418.26,409.76 417.50,411.00 C416.61,412.43 417.24,412.25 418.53,410.94 C417.26,412.57 416.08,414.08 415.00,415.44 C411.42,419.99 404.49,428.84 399.58,435.11 C394.67,441.37 388.21,449.54 385.22,453.25 L 379.77 460.00 L 366.01 460.00 C358.44,460.00 350.90,460.27 349.25,460.60 C347.59,460.93 345.98,460.77 345.65,460.25 C345.11,459.36 348.11,455.54 370.96,428.00 C375.75,422.23 384.48,411.42 390.37,404.00 C395.03,398.12 399.10,392.99 402.65,388.53 L 403.63 387.71 C405.58,386.06 405.81,386.05 406.39,387.56 C406.81,388.67 405.76,390.47 403.19,393.04 C400.73,395.51 399.42,397.69 399.53,399.17 C399.62,400.44 399.09,402.93 398.35,404.70 C396.40,409.37 396.64,412.09 399.06,412.73 C400.35,413.06 400.90,413.81 400.55,414.72 C399.29,418.02 398.82,421.08 399.36,422.50 C400.24,424.78 402.82,424.29 403.18,421.78 ZM 344.46 446.62 C339.22,452.88 334.72,458.00 334.46,458.00 C334.21,458.00 334.10,439.44 334.23,416.75 C334.41,385.60 334.53,381.94 334.75,401.80 C334.93,418.71 335.38,427.88 336.02,427.49 C336.56,427.16 337.00,427.62 337.00,428.51 C337.00,429.41 337.70,430.84 338.55,431.69 C339.94,433.09 339.92,433.43 338.34,435.18 C336.82,436.85 336.78,437.25 338.04,438.05 C338.84,438.55 340.06,438.98 340.75,438.98 C341.44,438.99 342.00,439.47 342.00,440.04 C342.00,440.61 343.24,439.92 344.75,438.51 C346.26,437.09 348.47,435.69 349.66,435.38 C350.84,435.08 354.86,431.27 358.57,426.91 C362.29,422.56 365.50,419.00 365.70,419.00 C366.61,419.00 363.75,422.95 359.08,428.16 C356.28,431.27 354.00,434.14 354.00,434.53 C354.00,434.92 349.71,440.36 344.46,446.62 ZM 420.62 408.26 C420.45,408.36 420.16,408.57 419.75,408.89 C418.61,409.78 418.00,409.86 418.00,409.13 C418.00,408.52 421.04,404.96 424.75,401.22 C427.61,398.34 432.00,393.34 435.68,388.82 C432.69,392.69 429.76,396.48 427.00,400.04 C427.05,399.87 426.65,400.17 425.75,400.87 C424.79,401.63 424.00,402.41 424.00,402.62 C424.00,403.27 424.50,403.08 425.35,402.17 C423.69,404.31 422.11,406.35 420.62,408.26 ZM 228.17 213.35 C227.92,214.67 228.33,215.08 229.65,214.83 C230.65,214.64 231.64,213.65 231.83,212.65 C232.08,211.33 231.67,210.92 230.35,211.17 C229.35,211.36 228.36,212.35 228.17,213.35 ZM 364.84 484.49 C364.57,484.76 362.81,485.22 360.93,485.52 L 357.50 486.06 L 360.74 484.35 C362.52,483.41 364.28,482.95 364.66,483.32 C365.03,483.70 365.11,484.22 364.84,484.49 ZM 231.37 520.28 C231.30,520.32 231.23,520.36 231.15,520.41 C229.63,521.35 225.80,520.13 226.54,518.94 C226.85,518.43 226.33,518.32 225.39,518.68 C224.13,519.16 223.89,518.99 224.49,518.02 C224.65,517.76 224.75,517.56 224.80,517.42 C228.86,519.16 230.17,519.74 231.37,520.28 ZM 239.00 240.56 C239.00,241.35 239.68,242.00 240.50,242.00 C242.18,242.00 242.25,241.82 241.40,239.59 C240.69,237.76 239.00,238.44 239.00,240.56 ZM 408.25 381.50 C409.50,379.93 410.67,378.47 411.76,377.11 C411.46,377.63 411.44,377.85 411.75,377.65 C412.44,377.23 413.00,377.29 413.00,377.79 C413.00,379.02 409.47,382.13 408.81,381.48 C408.70,381.36 408.50,381.38 408.25,381.50 ZM 421.19 365.48 C425.07,360.79 426.57,359.24 427.28,358.86 C427.33,358.83 427.37,358.80 427.42,358.78 C427.12,359.08 426.78,359.41 426.41,359.75 C424.75,361.26 424.31,361.83 425.45,361.01 C427.10,359.80 427.02,360.09 425.01,362.51 C421.28,367.01 420.60,367.69 421.55,366.00 C422.18,364.87 422.17,364.72 421.19,365.48 ZM 416.46 371.27 C417.47,370.02 418.38,368.89 419.22,367.87 C419.38,367.84 419.64,367.72 420.00,367.50 C420.55,367.16 421.00,367.30 421.00,367.82 C421.00,369.06 418.46,371.13 417.78,370.45 C417.63,370.30 417.14,370.63 416.46,371.27 ZM 123.00 175.50 C123.00,177.05 121.82,177.49 120.69,176.36 C119.89,175.56 120.80,174.00 122.06,174.00 C122.58,174.00 123.00,174.68 123.00,175.50 ZM 404.70 385.95 C405.31,385.19 405.90,384.44 406.48,383.72 C406.68,383.57 406.93,383.38 407.25,383.13 C408.21,382.37 409.00,382.21 409.00,382.76 C409.00,384.01 406.49,386.16 405.82,385.49 C405.66,385.33 405.23,385.52 404.70,385.95 ZM 414.86 374.25 C416.11,372.46 417.35,371.00 417.60,371.00 C418.47,371.00 416.13,374.65 414.34,376.08 C413.09,377.09 413.24,376.56 414.86,374.25 ZM 235.59 522.33 C235.56,522.34 235.53,522.35 235.50,522.36 C233.47,523.14 230.86,522.04 231.66,520.74 C231.72,520.64 231.77,520.55 231.80,520.48 C233.33,521.18 234.64,521.83 235.59,522.33 ZM 227.00 290.06 C227.00,290.58 227.45,291.00 228.00,291.00 C228.55,291.00 229.00,290.30 229.00,289.44 C229.00,288.58 228.55,288.16 228.00,288.50 C227.45,288.84 227.00,289.54 227.00,290.06 ZM 124.00 191.94 C124.00,192.46 123.55,193.16 123.00,193.50 C122.45,193.84 122.00,193.42 122.00,192.56 C122.00,191.70 122.45,191.00 123.00,191.00 C123.55,191.00 124.00,191.42 124.00,191.94 ZM 343.50 438.00 C343.16,438.55 342.68,439.00 342.44,439.00 C342.20,439.00 342.00,438.55 342.00,438.00 C342.00,437.45 342.48,437.00 343.06,437.00 C343.64,437.00 343.84,437.45 343.50,438.00 ZM 432.28 351.26 C432.57,350.96 432.92,350.64 433.31,350.33 C434.59,349.32 435.60,348.17 435.57,347.77 C435.53,347.37 436.52,346.32 437.77,345.45 C439.01,344.58 439.83,343.53 439.57,343.12 C439.83,343.53 439.19,344.46 438.15,345.18 C437.12,345.91 436.23,346.87 436.19,347.32 C436.14,347.76 434.93,349.05 433.50,350.18 C433.03,350.55 432.62,350.92 432.28,351.26 ZM 451.51 368.20 C453.90,365.06 456.31,361.90 458.52,359.00 C465.43,349.92 474.81,337.77 479.36,332.00 C474.81,337.77 465.43,349.92 458.53,359.00 C456.32,361.90 453.96,365.00 451.51,368.20 ZM 240.00 524.00 C240.00,524.61 240.42,524.86 240.93,524.54 C240.42,524.86 240.00,524.66 240.00,524.09 C240.00,523.65 239.58,523.42 239.00,523.51 C239.56,523.22 240.00,523.42 240.00,524.00 ZM 284.02 562.95 C284.29,562.97 284.53,562.97 284.76,562.98 C287.76,563.00 288.23,563.46 290.53,568.67 C288.30,563.62 287.70,563.00 285.06,563.00 C284.77,563.00 284.42,562.98 284.02,562.95 ZM 237.84 523.77 C237.42,523.76 237.11,523.56 237.02,523.20 C237.08,523.25 237.12,523.29 237.14,523.32 C237.30,523.56 237.55,523.71 237.84,523.77 ZM 428.91 356.04 C429.16,355.70 429.53,355.34 429.98,355.01 C429.93,355.06 429.88,355.10 429.83,355.15 C429.46,355.47 429.14,355.78 428.91,356.04 ZM 428.64 357.27 C428.63,357.22 428.61,357.17 428.58,357.13 C428.56,357.09 428.54,357.05 428.53,357.00 C428.54,357.00 428.55,357.00 428.56,357.00 C428.69,357.00 428.71,357.10 428.64,357.27 ZM 431.49 353.04 C431.48,352.99 431.46,352.94 431.44,352.90 C431.41,352.85 431.39,352.78 431.39,352.71 C431.40,352.73 431.41,352.75 431.43,352.76 C431.49,352.82 431.51,352.92 431.49,353.04 Z" fill="rgb(31,48,149)"/>
<path d="M 124.37 200.57 C125.88,198.06 127.03,196.12 127.38,195.50 C128.50,193.49 134.69,185.23 139.45,179.36 C140.85,177.64 141.99,175.61 141.97,174.86 C141.95,173.96 141.59,174.10 140.91,175.27 C140.34,176.25 139.49,176.80 139.01,176.50 C138.53,176.21 137.81,176.49 137.41,177.14 C136.94,177.91 137.13,178.04 137.98,177.52 C138.79,177.01 139.11,177.17 138.85,177.94 C138.63,178.60 138.01,179.15 137.48,179.15 C135.82,179.14 133.00,182.22 133.00,184.03 C133.00,184.98 132.32,186.32 131.50,187.00 C130.68,187.68 130.00,187.91 130.00,187.50 C130.00,187.09 129.29,187.34 128.43,188.06 C127.57,188.77 127.07,190.18 127.34,191.18 C127.60,192.18 127.33,193.29 126.75,193.65 C126.09,194.06 125.99,193.83 126.48,193.02 C127.01,192.17 126.81,191.89 125.89,192.19 C125.13,192.44 123.60,194.05 122.50,195.78 C119.98,199.74 117.99,199.98 118.69,196.25 C119.74,190.66 119.05,179.53 117.59,178.46 C115.45,176.87 115.38,174.78 117.37,171.79 C118.36,170.31 118.88,168.62 118.53,168.04 C118.17,167.47 119.00,166.57 120.36,166.05 C122.23,165.34 122.71,164.59 122.30,163.02 C121.98,161.82 122.44,160.17 123.38,159.14 C124.27,158.15 124.80,157.13 124.55,156.88 C124.12,156.46 125.34,155.14 134.00,146.66 C135.93,144.78 139.08,141.50 141.02,139.37 C142.96,137.24 147.42,133.02 150.94,130.00 C154.46,126.97 157.82,124.04 158.42,123.48 C159.01,122.92 164.11,119.17 169.75,115.14 C175.39,111.11 180.00,107.61 180.00,107.36 C180.00,106.14 164.08,117.67 152.18,127.49 C143.74,134.46 136.22,141.31 129.30,148.41 C141.75,135.40 155.67,123.40 170.89,112.63 C176.04,108.98 180.88,106.00 181.63,106.00 C182.38,106.00 183.00,105.62 183.00,105.17 C183.00,104.07 202.50,93.03 212.57,88.42 C232.54,79.29 257.16,70.36 259.08,71.55 C259.59,71.86 260.00,71.59 260.00,70.94 C260.00,70.26 260.84,69.99 262.00,70.29 C263.10,70.58 264.00,70.35 264.00,69.79 C264.00,69.23 264.90,69.00 266.00,69.29 C267.10,69.58 268.00,69.49 268.00,69.09 C268.00,68.09 282.71,64.70 283.88,65.43 C284.40,65.75 284.98,65.55 285.17,64.98 C285.36,64.41 287.88,63.84 290.76,63.72 C293.64,63.60 296.00,63.16 296.00,62.75 C296.00,62.34 297.08,62.00 298.40,62.00 C300.27,62.00 301.49,60.79 303.84,56.64 C308.84,47.77 319.08,40.55 330.12,38.09 C336.30,36.72 349.20,37.73 355.49,40.08 C366.14,44.07 375.17,53.47 379.10,64.67 C382.06,73.10 381.44,85.53 377.69,93.20 C373.44,101.89 367.91,107.44 359.23,111.73 C351.79,115.40 351.31,115.50 340.55,115.50 C330.22,115.50 329.06,115.29 322.83,112.34 C315.32,108.78 305.25,99.52 303.04,94.14 C301.68,90.81 301.64,90.79 296.58,91.44 C288.11,92.54 266.29,97.92 254.05,101.94 C236.27,107.78 215.30,117.62 199.50,127.52 C197.30,128.90 194.71,130.30 193.75,130.63 C192.79,130.96 192.00,131.56 192.00,131.96 C192.00,132.36 187.84,135.64 182.75,139.25 C177.66,142.85 170.46,148.59 166.75,151.99 C163.04,155.39 160.00,157.82 160.00,157.39 C160.00,156.95 158.20,158.35 156.00,160.50 C153.80,162.65 152.00,164.89 152.00,165.49 C152.00,166.09 149.71,168.81 146.90,171.54 C139.65,178.59 131.75,188.91 124.37,200.57 ZM 258.62 246.00 C250.94,254.04 244.54,262.90 239.49,272.45 C245.14,261.65 252.31,251.69 260.52,243.51 C272.53,231.51 287.61,221.73 305.50,214.34 C313.61,210.99 314.61,209.64 306.77,212.62 C300.61,214.97 286.73,221.62 281.22,224.87 C278.62,226.41 275.86,227.45 275.10,227.20 C274.29,226.93 274.00,227.19 274.39,227.83 C274.76,228.42 274.04,229.59 272.78,230.41 C271.53,231.24 268.09,234.18 265.14,236.95 C262.20,239.72 259.27,241.69 258.64,241.33 C258.01,240.97 257.82,241.03 258.20,241.46 C258.59,241.89 258.34,242.75 257.66,243.37 C252.11,248.39 250.81,249.30 248.79,249.51 C245.09,249.89 245.00,249.94 245.00,251.42 C245.00,252.20 245.56,253.04 246.25,253.28 C247.10,253.59 246.78,254.37 245.25,255.73 C244.01,256.83 243.00,258.77 243.00,260.03 C243.00,261.30 242.70,262.04 242.34,261.68 C241.98,261.31 241.12,261.49 240.43,262.06 C237.54,264.45 237.48,253.33 240.36,250.15 C241.26,249.16 242.00,247.62 242.00,246.73 C242.00,245.84 242.82,244.53 243.81,243.81 C247.59,241.08 247.59,237.00 243.81,237.00 C242.15,237.00 241.94,236.54 242.48,234.08 C242.86,232.37 242.60,230.34 241.87,229.16 C240.88,227.57 240.87,226.59 241.82,224.50 C243.34,221.15 242.46,219.67 239.39,220.44 C236.60,221.14 236.20,219.43 238.47,216.44 C240.59,213.64 240.34,211.61 237.53,208.80 C236.12,207.40 235.59,206.27 236.28,206.19 C237.37,206.06 241.26,205.47 243.25,205.13 C243.66,205.06 244.00,204.06 244.00,202.91 C244.00,201.65 244.80,200.60 246.02,200.28 C247.72,199.84 247.84,199.50 246.77,198.19 C246.01,197.24 245.95,196.89 246.64,197.30 C247.29,197.69 248.81,196.68 250.14,195.00 C251.44,193.36 253.23,192.01 254.13,192.01 C256.13,192.00 258.25,189.61 257.24,188.50 C256.83,188.05 257.13,188.05 257.90,188.49 C258.79,189.01 259.74,188.71 260.49,187.68 C262.01,185.61 280.08,177.88 290.40,174.89 C294.75,173.63 297.80,172.43 297.18,172.23 C295.24,171.58 272.19,179.91 262.03,184.94 C252.19,189.80 242.81,195.62 234.05,202.22 C241.28,196.72 248.96,191.70 257.02,187.25 C269.68,180.25 297.22,170.38 300.54,171.65 C301.34,171.96 302.00,171.69 302.00,171.04 C302.00,170.32 302.77,170.11 304.00,170.50 C305.13,170.86 306.00,170.68 306.00,170.09 C306.00,169.47 307.20,169.29 309.00,169.65 C311.04,170.06 312.00,169.85 312.00,169.02 C312.00,168.21 312.84,167.99 314.44,168.40 C315.78,168.73 317.17,168.54 317.52,167.97 C317.89,167.37 319.59,167.21 321.58,167.58 C323.46,167.93 325.00,167.84 325.00,167.36 C325.00,166.33 367.00,166.26 368.66,167.29 C369.30,167.69 371.33,167.99 373.16,167.96 C375.00,167.93 378.08,168.13 380.00,168.40 C381.92,168.68 385.52,169.18 387.99,169.52 C390.45,169.87 392.70,170.50 392.99,170.93 C393.27,171.36 394.96,171.74 396.74,171.79 C398.52,171.83 400.54,172.22 401.24,172.65 C401.93,173.09 403.40,173.58 404.50,173.75 C410.26,174.63 436.64,185.62 440.94,188.92 L 443.38 190.80 L 437.38 197.65 C434.07,201.42 428.79,207.76 425.64,211.75 C422.49,215.74 419.70,219.00 419.44,219.00 C419.18,219.00 418.19,218.58 417.24,218.07 C414.73,216.72 396.62,211.27 389.00,209.57 C385.42,208.77 376.88,207.58 370.00,206.93 C325.37,202.68 287.22,216.06 258.62,246.00 ZM 334.44 457.95 C334.39,457.98 334.36,458.00 334.34,458.00 C333.99,458.00 333.88,426.04 334.10,386.99 L 334.50 315.97 L 360.00 316.24 L 385.50 316.50 L 386.01 396.50 L 376.89 407.50 C371.87,413.55 364.95,421.88 361.50,426.00 C359.19,428.77 355.10,433.68 350.98,438.65 C352.84,436.31 354.00,434.73 354.00,434.53 C354.00,434.14 356.28,431.27 359.08,428.16 C363.75,422.95 366.61,419.00 365.70,419.00 C365.50,419.00 362.29,422.56 358.57,426.91 C354.86,431.27 350.84,435.08 349.66,435.38 C348.47,435.69 346.26,437.09 344.75,438.51 C343.24,439.92 342.00,440.61 342.00,440.04 C342.00,439.47 341.44,438.99 340.75,438.98 C340.06,438.98 338.84,438.55 338.04,438.05 C336.78,437.25 336.82,436.85 338.34,435.18 C339.92,433.43 339.94,433.09 338.55,431.69 C337.70,430.84 337.00,429.41 337.00,428.51 C337.00,427.62 336.56,427.16 336.02,427.49 C335.38,427.88 334.93,418.71 334.75,401.80 C334.53,381.94 334.41,385.60 334.23,416.75 C334.11,438.74 334.20,456.85 334.44,457.95 ZM 361.75 485.55 C359.49,486.06 355.94,486.48 351.66,486.82 C352.79,486.58 353.44,486.41 353.44,486.25 C353.44,485.96 351.03,485.69 345.00,484.99 C338.08,484.20 325.23,481.58 324.51,480.83 C324.34,480.65 324.04,479.38 323.85,478.00 C323.66,476.62 322.83,475.15 322.00,474.73 C321.15,474.29 321.58,474.22 323.00,474.57 C330.24,476.33 331.54,474.86 327.04,470.04 C325.37,468.25 324.00,466.16 324.00,465.39 C324.00,463.31 327.02,463.71 329.06,466.07 C330.23,467.41 331.78,468.03 333.46,467.82 C337.12,467.37 336.77,465.66 332.83,464.64 C331.00,464.17 326.66,462.88 323.19,461.79 C317.18,459.89 316.81,459.88 315.59,461.55 C313.97,463.76 311.80,462.56 312.20,459.69 C312.40,458.30 311.89,457.43 310.75,457.20 C309.68,456.99 309.00,457.46 309.00,458.43 C309.00,460.66 305.97,460.38 300.34,457.63 C295.49,455.27 289.70,452.77 289.27,452.87 C288.88,452.95 278.62,447.45 275.49,445.47 C257.73,434.26 233.19,412.39 226.14,401.50 C224.72,399.30 222.18,395.86 220.51,393.85 C218.84,391.84 216.54,388.46 215.41,386.35 C214.27,384.23 211.69,379.51 209.67,375.85 C206.67,370.42 206.00,368.17 206.00,363.60 C206.00,359.54 206.38,358.00 207.36,358.00 C208.79,358.00 209.97,351.33 209.99,343.16 C210.00,340.34 210.70,337.92 212.00,336.27 C213.10,334.87 214.00,332.70 214.00,331.43 C214.00,330.03 214.76,328.89 215.97,328.51 C217.95,327.88 219.79,322.09 218.61,320.18 C218.29,319.65 218.64,318.72 219.39,318.09 C221.02,316.74 221.96,319.33 221.99,325.17 C221.99,327.19 222.44,331.02 222.98,333.67 C223.52,336.33 224.30,341.65 224.72,345.50 C225.34,351.25 225.58,348.76 226.07,331.50 C226.12,329.88 226.17,328.32 226.23,326.82 C226.09,341.28 226.84,359.28 228.03,360.02 C228.59,360.37 229.33,363.09 229.68,366.08 C230.02,369.06 230.64,371.73 231.06,372.00 C231.89,372.56 235.90,383.12 236.75,387.00 C237.05,388.38 237.59,389.73 237.95,390.00 C239.36,391.08 243.00,397.83 243.00,399.37 C243.00,400.27 243.41,401.00 243.92,401.00 C244.42,401.00 245.86,402.69 247.11,404.75 C253.78,415.74 267.05,429.52 280.92,439.85 C285.09,442.96 288.65,445.84 288.83,446.25 C289.02,446.66 289.65,447.00 290.23,447.00 C290.82,447.00 294.27,448.71 297.90,450.80 C307.18,456.15 320.86,461.48 332.00,464.10 C337.23,465.32 341.73,466.65 342.00,467.05 C343.31,468.94 375.48,470.91 376.17,469.14 C376.60,468.03 397.37,466.99 399.00,468.00 C399.69,468.43 399.94,469.28 399.56,469.90 C399.18,470.52 398.44,470.77 397.93,470.46 C397.42,470.14 397.00,470.35 397.00,470.93 C397.00,472.30 382.32,479.66 374.83,482.05 C371.62,483.08 365.74,484.65 361.75,485.55 ZM 445.20 322.63 L 448.58 318.72 L 438.75 330.63 C431.46,339.47 422.12,350.89 418.00,356.01 C413.88,361.13 408.99,367.05 407.13,369.16 C405.28,371.27 403.37,373.00 402.88,373.00 C402.38,373.00 402.00,351.28 402.00,323.00 L 402.00 292.50 C402.00,304.83 402.37,312.00 403.00,312.00 C403.55,312.00 404.00,311.55 404.00,311.00 C404.00,309.34 406.58,309.87 408.42,311.91 C409.37,312.96 411.57,314.39 413.32,315.10 C415.07,315.81 416.86,316.97 417.30,317.69 C417.74,318.41 418.59,319.00 419.19,319.00 C419.79,319.00 422.19,320.69 424.53,322.75 C430.09,327.66 435.14,330.88 436.95,330.66 C437.75,330.57 441.46,326.95 445.20,322.63 ZM 228.17 213.35 C228.36,212.35 229.35,211.36 230.35,211.17 C231.67,210.92 232.08,211.33 231.83,212.65 C231.64,213.65 230.65,214.64 229.65,214.83 C228.33,215.08 227.92,214.67 228.17,213.35 ZM 364.84 484.49 C365.11,484.22 365.03,483.70 364.66,483.32 C364.28,482.95 362.52,483.41 360.74,484.35 L 357.50 486.06 L 360.93 485.52 C362.81,485.22 364.57,484.76 364.84,484.49 ZM 239.00 240.56 C239.00,238.44 240.69,237.76 241.40,239.59 C242.25,241.82 242.18,242.00 240.50,242.00 C239.68,242.00 239.00,241.35 239.00,240.56 ZM 123.00 175.50 C123.00,174.68 122.58,174.00 122.06,174.00 C120.80,174.00 119.89,175.56 120.69,176.36 C121.82,177.49 123.00,177.05 123.00,175.50 ZM 227.00 290.06 C227.00,289.54 227.45,288.84 228.00,288.50 C228.55,288.16 229.00,288.58 229.00,289.44 C229.00,290.30 228.55,291.00 228.00,291.00 C227.45,291.00 227.00,290.58 227.00,290.06 ZM 124.00 191.94 C124.00,191.42 123.55,191.00 123.00,191.00 C122.45,191.00 122.00,191.70 122.00,192.56 C122.00,193.42 122.45,193.84 123.00,193.50 C123.55,193.16 124.00,192.46 124.00,191.94 ZM 343.50 438.00 C343.84,437.45 343.64,437.00 343.06,437.00 C342.48,437.00 342.00,437.45 342.00,438.00 C342.00,438.55 342.20,439.00 342.44,439.00 C342.68,439.00 343.16,438.55 343.50,438.00 ZM 232.37 458.34 C206.64,440.19 187.20,414.76 176.75,384.28 C187.18,414.67 206.70,440.16 232.37,458.34 ZM 227.55 307.80 C227.81,305.77 228.09,304.04 228.41,302.61 C229.90,295.81 232.07,289.03 234.81,282.44 C231.50,290.49 229.07,298.97 227.55,307.80 ZM 107.61 174.07 C102.48,181.07 97.54,188.56 92.59,196.77 C91.50,198.57 90.44,200.38 89.41,202.21 C94.81,192.51 100.89,183.11 107.61,174.07 ZM 75.78 230.91 C70.18,245.22 65.81,260.61 62.44,277.64 C64.98,264.79 67.89,253.46 71.19,243.51 C72.60,239.27 74.13,235.07 75.78,230.91 ZM 98.95 254.53 C96.67,262.12 94.08,271.61 92.71,277.71 C94.53,269.60 96.61,261.90 98.95,254.53 ZM 108.71 229.15 C111.78,222.43 115.16,215.95 118.89,209.63 C115.22,216.00 111.77,222.59 108.71,229.15 Z" fill="rgb(79,50,218)"/>
<path d="M 0.00 305.50 L 0.00 0.00 L 321.00 0.00 L 642.00 0.00 L 642.00 305.50 L 642.00 611.00 L 321.00 611.00 L 0.00 611.00 L 0.00 305.50 ZM 344.50 589.99 C352.83,586.78 361.84,577.75 364.91,569.53 C370.53,554.48 366.17,537.69 354.00,527.47 C346.53,521.20 340.20,518.84 329.94,518.49 C325.02,518.33 320.76,518.58 320.47,519.05 C320.18,519.52 319.37,519.69 318.67,519.43 C314.59,517.86 301.57,525.81 296.38,533.03 C293.53,537.00 292.38,537.85 289.96,537.78 C288.33,537.73 287.00,537.36 287.00,536.95 C287.00,536.55 285.76,536.18 284.25,536.15 C278.79,536.02 278.00,535.86 278.00,534.87 C278.00,534.32 277.10,534.15 276.00,534.50 C274.90,534.85 274.00,534.72 274.00,534.21 C274.00,533.70 272.88,533.49 271.50,533.76 C270.08,534.03 269.00,533.77 269.00,533.15 C269.00,532.55 268.37,532.30 267.60,532.60 C266.83,532.89 265.92,532.68 265.57,532.11 C265.22,531.55 264.28,531.34 263.47,531.65 C262.66,531.96 262.00,531.67 262.00,531.00 C262.00,530.33 261.34,530.04 260.53,530.35 C259.72,530.66 258.79,530.47 258.46,529.94 C258.13,529.41 257.47,529.21 257.00,529.50 C256.53,529.79 255.84,529.54 255.47,528.95 C255.10,528.35 254.21,528.09 253.50,528.36 C252.78,528.64 251.91,528.58 251.57,528.24 C251.23,527.90 249.97,527.47 248.77,527.28 C247.57,527.10 246.28,526.45 245.91,525.85 C245.53,525.24 244.75,525.03 244.18,525.39 C243.61,525.74 242.85,525.57 242.50,525.00 C242.15,524.43 241.44,524.23 240.93,524.54 C240.42,524.86 240.00,524.61 240.00,524.00 C240.00,523.39 239.50,523.19 238.89,523.57 C238.28,523.95 237.49,523.84 237.14,523.32 C236.79,522.81 232.45,520.68 227.50,518.58 C182.70,499.63 144.68,466.69 118.67,424.27 C108.17,407.14 98.14,381.62 94.19,362.00 L 92.28 352.50 L 97.39 349.70 C104.22,345.96 108.25,341.89 111.83,335.12 C116.12,326.99 117.45,319.43 116.03,311.17 C113.80,298.23 107.40,288.50 97.38,282.85 C93.10,280.43 92.29,279.54 92.71,277.71 C94.75,268.66 99.45,252.14 101.90,245.44 C111.66,218.69 130.88,187.14 146.90,171.54 C149.71,168.81 152.00,166.09 152.00,165.49 C152.00,164.89 153.80,162.65 156.00,160.50 C158.20,158.35 160.00,156.95 160.00,157.39 C160.00,157.82 163.04,155.39 166.75,151.99 C170.46,148.59 177.66,142.85 182.75,139.25 C187.84,135.64 192.00,132.36 192.00,131.96 C192.00,131.56 192.79,130.96 193.75,130.63 C194.71,130.30 197.30,128.90 199.50,127.52 C215.30,117.62 236.27,107.78 254.05,101.94 C266.29,97.92 288.11,92.54 296.58,91.44 C301.64,90.79 301.68,90.81 303.04,94.14 C305.25,99.52 315.32,108.78 322.83,112.34 C329.06,115.29 330.22,115.50 340.55,115.50 C351.31,115.50 351.79,115.40 359.23,111.73 C367.91,107.44 373.44,101.89 377.69,93.20 C381.44,85.53 382.06,73.10 379.10,64.67 C375.17,53.47 366.14,44.07 355.49,40.08 C349.20,37.73 336.30,36.72 330.12,38.09 C319.08,40.55 308.84,47.77 303.84,56.64 C301.49,60.79 300.27,62.00 298.40,62.00 C297.08,62.00 296.00,62.34 296.00,62.75 C296.00,63.16 293.64,63.60 290.76,63.72 C287.88,63.84 285.36,64.41 285.17,64.98 C284.98,65.55 284.40,65.75 283.88,65.43 C282.71,64.70 268.00,68.09 268.00,69.09 C268.00,69.49 267.10,69.58 266.00,69.29 C264.90,69.00 264.00,69.23 264.00,69.79 C264.00,70.35 263.10,70.58 262.00,70.29 C260.84,69.99 260.00,70.26 260.00,70.94 C260.00,71.59 259.59,71.86 259.08,71.55 C257.16,70.36 232.54,79.29 212.57,88.42 C202.50,93.03 183.00,104.07 183.00,105.17 C183.00,105.62 182.38,106.00 181.63,106.00 C180.88,106.00 176.04,108.98 170.89,112.63 C123.13,146.43 88.20,192.29 71.19,243.51 C67.89,253.46 64.98,264.79 62.44,277.64 C62.19,278.92 60.98,280.04 59.43,280.43 C52.36,282.20 43.44,290.38 39.25,298.91 C36.76,303.98 36.50,305.53 36.50,315.52 C36.50,325.89 36.69,326.92 39.69,333.02 C43.28,340.30 47.22,344.50 54.40,348.67 C57.09,350.24 59.64,352.19 60.06,353.01 C60.48,353.83 61.74,359.46 62.86,365.52 C68.21,394.40 84.73,431.28 103.76,456.84 C118.64,476.82 136.06,494.24 158.00,511.08 C182.72,530.05 217.60,547.12 249.67,555.92 C261.79,559.25 280.55,563.00 285.06,563.00 C287.70,563.00 288.30,563.62 290.53,568.67 C295.42,579.72 303.09,586.98 313.88,590.75 C322.58,593.79 335.47,593.47 344.50,589.99 ZM 361.75 485.55 C365.74,484.65 371.62,483.08 374.83,482.05 C382.32,479.66 397.00,472.30 397.00,470.93 C397.00,470.35 397.42,470.14 397.93,470.46 C398.44,470.77 399.18,470.52 399.56,469.90 C399.94,469.28 399.69,468.43 399.00,468.00 C397.37,466.99 376.60,468.03 376.17,469.14 C375.48,470.91 343.31,468.94 342.00,467.05 C341.73,466.65 337.23,465.32 332.00,464.10 C320.86,461.48 307.18,456.15 297.90,450.80 C294.27,448.71 290.82,447.00 290.23,447.00 C289.65,447.00 289.02,446.66 288.83,446.25 C288.65,445.84 285.09,442.96 280.92,439.85 C267.05,429.52 253.78,415.74 247.11,404.75 C245.86,402.69 244.42,401.00 243.92,401.00 C243.41,401.00 243.00,400.27 243.00,399.37 C243.00,397.83 239.36,391.08 237.95,390.00 C237.59,389.73 237.05,388.38 236.75,387.00 C235.90,383.12 231.89,372.56 231.06,372.00 C230.64,371.73 230.02,369.06 229.68,366.08 C229.33,363.09 228.59,360.37 228.03,360.02 C226.31,358.96 225.51,321.94 226.98,311.50 C230.50,286.45 241.27,264.16 258.62,246.00 C287.22,216.06 325.37,202.68 370.00,206.93 C376.88,207.58 385.42,208.77 389.00,209.57 C396.62,211.27 414.73,216.72 417.24,218.07 C418.19,218.58 419.18,219.00 419.44,219.00 C419.70,219.00 422.49,215.74 425.64,211.75 C428.79,207.76 434.07,201.42 437.38,197.65 L 443.38 190.80 L 440.94 188.92 C436.64,185.62 410.26,174.63 404.50,173.75 C403.40,173.58 401.93,173.09 401.24,172.65 C400.54,172.22 398.52,171.83 396.74,171.79 C394.96,171.74 393.27,171.36 392.99,170.93 C392.70,170.50 390.45,169.87 387.99,169.52 C385.52,169.18 381.92,168.68 380.00,168.40 C378.08,168.13 375.00,167.93 373.16,167.96 C371.33,167.99 369.30,167.69 368.66,167.29 C367.00,166.26 325.00,166.33 325.00,167.36 C325.00,167.84 323.46,167.93 321.58,167.58 C319.59,167.21 317.89,167.37 317.52,167.97 C317.17,168.54 315.78,168.73 314.44,168.40 C312.84,167.99 312.00,168.21 312.00,169.02 C312.00,169.85 311.04,170.06 309.00,169.65 C307.20,169.29 306.00,169.47 306.00,170.09 C306.00,170.68 305.13,170.86 304.00,170.50 C302.77,170.11 302.00,170.32 302.00,171.04 C302.00,171.69 301.34,171.96 300.54,171.65 C297.22,170.38 269.68,180.25 257.02,187.25 C227.58,203.52 203.14,227.29 187.58,254.77 C179.19,269.58 175.25,280.00 171.30,297.77 C168.95,308.30 168.68,311.64 168.64,330.50 C168.58,354.50 169.79,362.98 176.00,382.03 C194.05,437.43 241.51,476.57 302.66,486.49 C314.72,488.45 351.48,487.86 361.75,485.55 ZM 366.01 460.00 L 379.77 460.00 L 385.22 453.25 C388.21,449.54 394.67,441.37 399.58,435.11 C404.49,428.84 411.42,419.99 415.00,415.44 C425.14,402.54 444.75,377.11 458.53,359.00 C465.43,349.92 474.81,337.77 479.36,332.00 C486.88,322.46 506.58,296.76 511.50,290.06 C512.60,288.56 515.35,285.12 517.61,282.42 C519.87,279.71 524.77,273.45 528.49,268.50 C538.68,254.95 544.39,248.11 545.50,248.12 C546.37,248.13 556.11,258.79 561.84,266.00 C562.93,267.38 564.01,268.27 564.23,268.00 C564.45,267.73 569.83,249.27 576.19,227.00 C582.55,204.73 588.10,185.66 588.53,184.64 C589.22,182.97 588.96,182.85 586.03,183.49 C583.18,184.12 539.67,197.82 510.75,207.19 C505.39,208.93 501.00,210.90 501.00,211.57 C501.00,212.24 503.36,214.26 506.25,216.05 C516.87,222.64 527.52,229.40 528.32,230.06 C529.06,230.67 522.83,238.68 490.94,278.16 C485.89,284.39 479.12,292.88 475.88,297.00 C472.63,301.12 469.40,305.17 468.68,306.00 C463.89,311.53 459.89,317.01 460.63,317.04 C461.11,317.06 460.32,318.07 458.87,319.29 C456.18,321.55 445.58,334.00 446.35,334.00 C446.58,334.00 445.05,335.88 442.94,338.19 C440.84,340.49 439.32,342.71 439.57,343.12 C439.83,343.53 439.01,344.58 437.77,345.45 C436.52,346.32 435.53,347.37 435.57,347.77 C435.60,348.17 434.59,349.32 433.31,350.33 C432.03,351.34 431.19,352.49 431.44,352.90 C431.69,353.30 431.04,354.25 430.00,355.00 C428.96,355.75 428.32,356.71 428.58,357.13 C428.84,357.55 428.26,358.33 427.28,358.86 C425.64,359.74 419.87,366.80 390.37,404.00 C384.48,411.42 375.75,422.23 370.96,428.00 C348.11,455.54 345.11,459.36 345.65,460.25 C345.98,460.77 347.59,460.93 349.25,460.60 C350.90,460.27 358.44,460.00 366.01,460.00 ZM 345.10 445.75 C350.67,439.01 358.05,430.12 361.50,426.00 C364.95,421.88 371.87,413.55 376.89,407.50 L 386.01 396.50 L 385.76 356.50 L 385.50 316.50 L 360.00 316.24 L 334.50 315.97 L 334.10 386.99 C333.88,426.04 333.99,458.00 334.34,458.00 C334.68,458.00 339.53,452.49 345.10,445.75 ZM 320.00 410.00 L 320.00 367.00 L 294.50 367.00 L 269.00 367.00 L 269.00 393.38 L 269.00 419.76 L 276.14 426.49 C280.06,430.19 286.95,435.62 291.45,438.55 C300.58,444.50 316.25,452.61 319.25,452.92 C319.66,452.96 320.00,433.65 320.00,410.00 ZM 407.13 369.16 C408.99,367.05 413.88,361.13 418.00,356.01 C422.12,350.89 431.46,339.47 438.75,330.63 L 452.00 314.57 L 452.00 293.79 L 452.00 273.00 L 427.00 273.00 L 402.00 273.00 L 402.00 323.00 C402.00,351.28 402.38,373.00 402.88,373.00 C403.37,373.00 405.28,371.27 407.13,369.16 Z" fill="rgb(254,254,254)"/>
</g>
</svg>